<svg width="121" height="33" xmlns="http://www.w3.org/2000/svg">

 <g>
  <title>Layer 1</title>
  <path id="svg_1" d="m16.715,7.932c-0.068,-0.09 -0.306,-0.26 -0.714,-0.51s-0.918,-0.51 -1.53,-0.782s-1.281,-0.51 -2.006,-0.714a8.005,8.005 0 0 0 -2.176,-0.306c-1.995,0 -2.992,0.669 -2.992,2.006c0,0.408 0.107,0.748 0.323,1.02c0.215,0.272 0.532,0.516 0.952,0.731c0.419,0.215 0.946,0.414 1.58,0.595l1.406,0.393l0.805,0.219c1.156,0.317 2.198,0.663 3.128,1.037c0.929,0.374 1.717,0.839 2.363,1.394a5.647,5.647 0 0 1 1.496,2.023c0.35,0.793 0.527,1.745 0.527,2.856c0,1.36 -0.255,2.51 -0.765,3.451c-0.51,0.94 -1.185,1.7 -2.023,2.278c-0.84,0.578 -1.802,0.997 -2.89,1.258c-1.088,0.26 -2.21,0.391 -3.366,0.391a19.68,19.68 0 0 1 -5.44,-0.799c-0.884,-0.26 -1.74,-0.572 -2.567,-0.935a14.358,14.358 0 0 1 -2.296,-1.258l2.448,-4.862c0.09,0.113 0.385,0.329 0.884,0.646c0.498,0.317 1.116,0.635 1.853,0.952c0.736,0.317 1.558,0.6 2.465,0.85c0.906,0.25 1.824,0.374 2.754,0.374c1.972,0 2.958,-0.6 2.958,-1.802c0,-0.453 -0.148,-0.827 -0.442,-1.122c-0.295,-0.295 -0.703,-0.561 -1.224,-0.799a12.455,12.455 0 0 0 -1.504,-0.56l-1.702,-0.495l-0.976,-0.288c-1.111,-0.34 -2.074,-0.708 -2.89,-1.105c-0.816,-0.397 -1.49,-0.856 -2.023,-1.377a5.003,5.003 0 0 1 -1.19,-1.802c-0.261,-0.68 -0.391,-1.473 -0.391,-2.38c0,-1.27 0.238,-2.391 0.714,-3.366a7.266,7.266 0 0 1 1.938,-2.465a8.435,8.435 0 0 1 2.839,-1.513c1.076,-0.34 2.215,-0.51 3.417,-0.51c0.838,0 1.666,0.08 2.482,0.238c0.816,0.159 1.598,0.363 2.346,0.612c0.748,0.25 1.445,0.533 2.09,0.85c0.647,0.317 1.242,0.635 1.786,0.952l-2.448,4.624l0.001,0zm23.424,17.068l-5.44,0l0,-10.03c0,-1.156 -0.227,-2.006 -0.68,-2.55c-0.454,-0.544 -1.077,-0.816 -1.87,-0.816c-0.318,0 -0.663,0.074 -1.037,0.221a4.173,4.173 0 0 0 -1.088,0.646a5.827,5.827 0 0 0 -0.97,1.003a4.4,4.4 0 0 0 -0.68,1.292l0,10.234l-5.44,0l0,-24.82l5.44,0l0,9.962a6.786,6.786 0 0 1 2.602,-2.465c1.076,-0.578 2.26,-0.867 3.553,-0.867c1.201,0 2.17,0.21 2.907,0.629c0.736,0.42 1.303,0.952 1.7,1.598c0.396,0.646 0.663,1.371 0.799,2.176c0.136,0.805 0.204,1.592 0.204,2.363l0,11.424zm12.34,0.34c-1.519,0 -2.873,-0.25 -4.063,-0.748c-1.19,-0.499 -2.193,-1.173 -3.01,-2.023a8.54,8.54 0 0 1 -1.852,-2.958a9.97,9.97 0 0 1 -0.63,-3.519c0,-1.224 0.21,-2.397 0.63,-3.519a8.54,8.54 0 0 1 1.853,-2.958c0.816,-0.85 1.819,-1.53 3.009,-2.04s2.544,-0.765 4.063,-0.765c1.519,0 2.867,0.255 4.046,0.765c1.179,0.51 2.176,1.19 2.992,2.04a8.754,8.754 0 0 1 1.87,2.958a9.736,9.736 0 0 1 0.646,3.519a9.97,9.97 0 0 1 -0.63,3.519a8.54,8.54 0 0 1 -1.852,2.958c-0.816,0.85 -1.82,1.524 -3.01,2.023c-1.19,0.499 -2.543,0.748 -4.062,0.748zm-3.979,-9.248c0,1.405 0.374,2.533 1.122,3.383c0.748,0.85 1.7,1.275 2.856,1.275a3.59,3.59 0 0 0 1.564,-0.34c0.476,-0.227 0.89,-0.544 1.24,-0.952a4.57,4.57 0 0 0 0.834,-1.479a5.632,5.632 0 0 0 0.306,-1.887c0,-1.405 -0.374,-2.533 -1.122,-3.383c-0.748,-0.85 -1.689,-1.275 -2.822,-1.275a3.702,3.702 0 0 0 -2.84,1.292a4.57,4.57 0 0 0 -0.832,1.479a5.632,5.632 0 0 0 -0.306,1.887zm27.776,-4.284c-1.315,0.023 -2.505,0.238 -3.57,0.646c-1.065,0.408 -1.836,1.02 -2.312,1.836l0,10.71l-5.44,0l0,-17.85l4.998,0l0,3.604c0.612,-1.201 1.4,-2.142 2.363,-2.822c0.963,-0.68 1.989,-1.031 3.077,-1.054l0.544,0c0.113,0 0.227,0.011 0.34,0.034l0,4.896zm14.074,12.24a21.71,21.71 0 0 1 -2.567,0.884c-0.963,0.272 -1.932,0.408 -2.907,0.408c-0.68,0 -1.32,-0.085 -1.92,-0.255a4.286,4.286 0 0 1 -1.582,-0.816c-0.453,-0.374 -0.81,-0.867 -1.07,-1.479c-0.262,-0.612 -0.392,-1.349 -0.392,-2.21l0,-9.316l-2.278,0l0,-4.114l2.278,0l0,-5.678l5.44,0l0,5.678l3.638,0l0,4.114l-3.638,0l0,7.446c0,0.59 0.147,1.014 0.442,1.275c0.295,0.26 0.669,0.391 1.122,0.391c0.408,0 0.827,-0.068 1.258,-0.204c0.43,-0.136 0.805,-0.283 1.122,-0.442l1.054,4.318zm2.277,-23.868l5.44,0l0,18.462c0,1.36 0.578,2.04 1.734,2.04c0.272,0 0.572,-0.04 0.901,-0.119c0.329,-0.08 0.63,-0.198 0.901,-0.357l0.714,4.08c-0.68,0.317 -1.462,0.567 -2.346,0.748c-0.884,0.181 -1.711,0.272 -2.482,0.272c-1.564,0 -2.765,-0.408 -3.604,-1.224c-0.839,-0.816 -1.258,-1.995 -1.258,-3.536l0,-20.366zm11.456,27.506c0.454,0.159 0.879,0.272 1.275,0.34a6.4,6.4 0 0 0 1.071,0.102c0.658,0 1.168,-0.227 1.53,-0.68c0.363,-0.453 0.692,-1.27 0.986,-2.448l-6.8,-17.85l5.61,0l4.148,13.192l3.57,-13.192l5.1,0l-6.8,20.74a7.106,7.106 0 0 1 -2.55,3.587c-1.224,0.918 -2.674,1.377 -4.352,1.377a8.17,8.17 0 0 1 -1.377,-0.119a7.516,7.516 0 0 1 -1.41,-0.391l0,-4.658l-0.001,0z" fill="#ffffff"/>
 </g>
</svg>